<svg xmlns="http://www.w3.org/2000/svg" xml:space="preserve" width="1067" height="1067" style="fill-rule:evenodd;clip-rule:evenodd;stroke-linejoin:round;stroke-miterlimit:2" id="netflix">
  <g>
    <path d="M998.963,171.061c-0,-27.627 -10.975,-54.122 -30.51,-73.657c-19.535,-19.535 -46.03,-30.51 -73.657,-30.51l-725,0c-27.627,0 -54.122,10.975 -73.657,30.51c-19.535,19.535 -30.51,46.03 -30.51,73.657l0,725c0,27.627 10.975,54.122 30.51,73.657c19.535,19.535 46.03,30.509 73.657,30.509l725,0c27.627,0 54.122,-10.974 73.657,-30.509c19.535,-19.535 30.51,-46.03 30.51,-73.657c-0,-179.58 -0,-545.42 -0,-725Z"></path>
    <g>
      <rect width="171.131" height="666.667" x="294.201" y="199.597" style="fill:#b1060f"></rect>
      <rect width="171.131" height="666.667" x="599.26" y="199.597" style="fill:#b1060f"></rect>
      <path d="M465.332,199.597l-171.131,0l305.059,666.667l171.131,-0l-305.059,-666.667Z" style="fill:#e50914"></path>
    </g>
  </g>
</svg>
